<svg width="132" height="53" viewBox="0 0 132 53" fill="none" xmlns="http://www.w3.org/2000/svg">
<circle cx="26.4599" cy="26.4599" r="26.4599" fill="#063796"/>
<path d="M4.91709 17.9469V16.7659H19.2621L19.4638 21.8644H17.8219L17.1881 18.2061H10.4189C10.3997 19.4352 10.3805 20.6642 10.3613 21.8932C10.3613 23.1223 10.3613 24.3321 10.3613 25.5227H14.8261L15.2294 22.7862H16.5544V29.8723H15.2294L14.8261 26.8765H10.3613C10.3613 28.2976 10.3613 29.6322 10.3613 30.8805C10.3805 32.1287 10.3997 33.3481 10.4189 34.5387L13.0978 34.8556V36.0366H4.91709V34.8556L7.56718 34.5387C7.60558 33.3289 7.62479 32.0999 7.62479 30.8517C7.62479 29.6034 7.62479 28.3552 7.62479 27.107V25.6955C7.62479 24.4473 7.62479 23.2087 7.62479 21.9796C7.62479 20.7314 7.60558 19.4928 7.56718 18.2638L4.91709 17.9469ZM21.317 17.9469V16.7659H29.4689V17.9469L26.8188 18.2638C26.7996 19.4736 26.7804 20.7026 26.7612 21.9508C26.7612 23.1991 26.7612 24.4473 26.7612 25.6955V27.107C26.7612 28.336 26.7612 29.5746 26.7612 30.8229C26.7804 32.0519 26.7996 33.2905 26.8188 34.5387L29.4689 34.8556V36.0366H21.317V34.8556L23.9671 34.5387C24.0055 33.3289 24.0247 32.0999 24.0247 30.8517C24.0247 29.6034 24.0247 28.3552 24.0247 27.107V25.6955C24.0247 24.4473 24.0247 23.2087 24.0247 21.9796C24.0247 20.7314 24.0055 19.4928 23.9671 18.2638L21.317 17.9469ZM31.3151 21.8932L31.5456 16.7659H47.3308L47.5613 21.8932H45.8906L45.2569 18.2061H40.8497C40.8305 19.4352 40.8113 20.6738 40.792 21.922C40.792 23.1703 40.792 24.4281 40.792 25.6955V27.107C40.792 28.336 40.792 29.5746 40.792 30.8229C40.8113 32.0519 40.8305 33.2905 40.8497 34.5387L43.7878 34.8556V36.0366H35.0886V34.8556L38.0267 34.5387C38.0651 33.3097 38.0844 32.0807 38.0844 30.8517C38.0844 29.6034 38.0844 28.3552 38.0844 27.107V25.6955C38.0844 24.4473 38.0844 23.1991 38.0844 21.9508C38.0844 20.7026 38.0651 19.4544 38.0267 18.2061H33.6195L32.9858 21.8932H31.3151Z" fill="white"/>
<path d="M64.654 7.6653V7.05587H72.0564L72.1604 9.68683H71.3132L70.9862 7.79908H67.4931C67.4832 8.43328 67.4733 9.06749 67.4634 9.70169C67.4634 10.3359 67.4634 10.9602 67.4634 11.5746H69.7673L69.9754 10.1625H70.6591V13.8191H69.9754L69.7673 12.2732H67.4634C67.4634 13.0065 67.4634 13.6952 67.4634 14.3393C67.4733 14.9834 67.4832 15.6127 67.4931 16.2271L68.8754 16.3906V17H64.654V16.3906L66.0215 16.2271C66.0413 15.6028 66.0513 14.9686 66.0513 14.3244C66.0513 13.6803 66.0513 13.0362 66.0513 12.3921V11.6638C66.0513 11.0196 66.0513 10.3805 66.0513 9.74629C66.0513 9.10217 66.0413 8.46301 66.0215 7.82881L64.654 7.6653ZM78.1817 17.1486C77.825 17.1486 77.5277 17.0446 77.2898 16.8365C77.052 16.6284 76.9034 16.3509 76.8439 16.0041C76.4376 16.4005 76.0809 16.6978 75.7737 16.896C75.4665 17.0941 75.0949 17.1932 74.6589 17.1932C74.1139 17.1932 73.6432 17.0396 73.2468 16.7324C72.8603 16.4153 72.6671 15.9496 72.6671 15.3352C72.6671 15.0478 72.7315 14.7803 72.8603 14.5325C72.9991 14.2848 73.2468 14.042 73.6035 13.8042C73.9603 13.5664 74.4706 13.3286 75.1345 13.0907C75.3625 13.0114 75.6251 12.9272 75.9223 12.838C76.2196 12.7488 76.5169 12.6696 76.8142 12.6002V12.2286C76.8142 11.5052 76.7052 11.0246 76.4872 10.7868C76.2692 10.549 75.9124 10.43 75.417 10.43C75.308 10.43 75.1841 10.435 75.0454 10.4449C74.9165 10.4548 74.7728 10.4796 74.6143 10.5192L74.3319 11.4854C74.1931 11.961 73.9355 12.1989 73.5589 12.1989C73.1427 12.1989 72.9099 11.9957 72.8603 11.5894C72.9991 11.0246 73.3261 10.5787 73.8414 10.2517C74.3666 9.91475 75.0057 9.74629 75.7588 9.74629C76.5417 9.74629 77.1214 9.94447 77.4979 10.3409C77.8745 10.7273 78.0628 11.3913 78.0628 12.3327V15.4987C78.0628 15.8158 78.1123 16.0437 78.2114 16.1825C78.3105 16.3113 78.4393 16.3757 78.5979 16.3757C78.7267 16.3757 78.8357 16.346 78.9249 16.2865C79.0141 16.2271 79.0983 16.1478 79.1776 16.0487L79.4749 16.3757C79.2965 16.6631 79.0983 16.8662 78.8803 16.9851C78.6722 17.0941 78.4393 17.1486 78.1817 17.1486ZM73.99 15.1123C73.99 15.5086 74.104 15.791 74.3319 15.9595C74.5598 16.128 74.8422 16.2122 75.1791 16.2122C75.3278 16.2122 75.4665 16.1924 75.5953 16.1527C75.7341 16.1131 75.8976 16.0388 76.0858 15.9298C76.2741 15.8109 76.5169 15.6424 76.8142 15.4244V13.1502C76.5565 13.2195 76.3039 13.2988 76.0561 13.388C75.8084 13.4673 75.6052 13.5366 75.4467 13.5961C75.0206 13.7646 74.7035 13.938 74.4954 14.1164C74.2873 14.2947 74.1485 14.4681 74.0792 14.6366C74.0197 14.8051 73.99 14.9636 73.99 15.1123ZM82.5338 17.1932C82.1176 17.1932 81.736 17.1437 81.3892 17.0446C81.0424 16.9554 80.6856 16.8167 80.319 16.6284L80.2595 14.9933H81.0771L81.3595 16.2865C81.7063 16.4451 82.1077 16.5243 82.5635 16.5243C83.1283 16.5243 83.5445 16.4203 83.8121 16.2122C84.0895 16.0041 84.2283 15.7316 84.2283 15.3947C84.2283 15.0776 84.1143 14.8249 83.8864 14.6366C83.6585 14.4384 83.3117 14.26 82.8459 14.1015L82.1622 13.8488C81.6171 13.6506 81.1811 13.393 80.8541 13.0759C80.5271 12.7588 80.3636 12.3475 80.3636 11.8421C80.3636 11.4755 80.4627 11.1336 80.6609 10.8165C80.8591 10.4994 81.1514 10.2418 81.5379 10.0436C81.9243 9.84538 82.395 9.74629 82.95 9.74629C83.3562 9.74629 83.7229 9.80079 84.0499 9.90979C84.3868 10.0089 84.7138 10.1575 85.0309 10.3557L84.9715 11.8719H84.1985L83.9607 10.6827C83.6238 10.5143 83.2819 10.43 82.9351 10.43C82.4793 10.43 82.1324 10.5242 81.8946 10.7125C81.6667 10.8908 81.5527 11.1336 81.5527 11.4408C81.5527 11.7678 81.6518 12.0155 81.85 12.184C82.0581 12.3525 82.4148 12.5308 82.9202 12.7191L83.381 12.8826C84.1242 13.1601 84.6494 13.4772 84.9566 13.8339C85.2737 14.1907 85.4323 14.6019 85.4323 15.0677C85.4323 15.4442 85.3233 15.796 85.1053 16.123C84.8873 16.4401 84.5652 16.6978 84.1391 16.896C83.713 17.0941 83.1779 17.1932 82.5338 17.1932ZM86.3067 17V16.4649L87.4215 16.2568C87.4314 15.8802 87.4364 15.4739 87.4364 15.0379C87.4463 14.592 87.4512 14.2055 87.4512 13.8785V7.35315L86.2324 7.20451V6.68427L88.5066 6.01538L88.7147 6.13429L88.6552 8.245V11.1138C89.0219 10.7075 89.448 10.3805 89.9336 10.1328C90.4191 9.87511 90.8997 9.74629 91.3754 9.74629C92.0195 9.74629 92.4952 9.96429 92.8023 10.4003C93.1194 10.8264 93.278 11.525 93.278 12.4962V13.8785C93.278 14.2154 93.278 14.6019 93.278 15.0379C93.2879 15.4739 93.2978 15.8802 93.3077 16.2568L94.3482 16.4649V17H90.8997V16.4649L91.9848 16.2717C91.9947 15.8951 91.9997 15.4888 91.9997 15.0528C92.0096 14.6069 92.0145 14.2154 92.0145 13.8785V12.6151C92.0145 11.9313 91.9204 11.4606 91.7321 11.203C91.5438 10.9453 91.2317 10.8165 90.7957 10.8165C90.429 10.8165 90.0822 10.8908 89.7552 11.0395C89.4282 11.1881 89.0764 11.4358 88.6998 11.7827V13.8785C88.6998 14.2055 88.6998 14.592 88.6998 15.0379C88.7097 15.4739 88.7197 15.8802 88.7296 16.2568L89.7552 16.4649V17H86.3067ZM95.3082 17V16.4649L96.423 16.2568C96.433 15.8802 96.4379 15.4739 96.4379 15.0379C96.4478 14.592 96.4528 14.2055 96.4528 13.8785V13.1799C96.4528 12.7736 96.4478 12.4367 96.4379 12.1691C96.4379 11.8917 96.428 11.6043 96.4082 11.307L95.219 11.1732V10.653L97.5081 9.74629L97.7311 9.89493L97.6865 11.9165V13.8785C97.6865 14.2055 97.6865 14.592 97.6865 15.0379C97.6964 15.4739 97.7063 15.8802 97.7162 16.2568L98.7567 16.4649V17H95.3082ZM97.0622 8.11123C96.7847 8.11123 96.5469 8.02204 96.3487 7.84367C96.1604 7.6653 96.0663 7.43738 96.0663 7.15992C96.0663 6.87255 96.1604 6.64463 96.3487 6.47617C96.5469 6.2978 96.7847 6.20861 97.0622 6.20861C97.3397 6.20861 97.5725 6.2978 97.7608 6.47617C97.959 6.64463 98.0581 6.87255 98.0581 7.15992C98.0581 7.43738 97.959 7.6653 97.7608 7.84367C97.5725 8.02204 97.3397 8.11123 97.0622 8.11123ZM103.288 17.1932C102.713 17.1932 102.163 17.0595 101.638 16.7919C101.123 16.5144 100.702 16.1032 100.375 15.5582C100.048 15.0032 99.8842 14.3195 99.8842 13.5069C99.8842 12.6844 100.048 11.9957 100.375 11.4408C100.702 10.876 101.123 10.4548 101.638 10.1773C102.163 9.88997 102.713 9.74629 103.288 9.74629C103.863 9.74629 104.408 9.88997 104.923 10.1773C105.448 10.4548 105.874 10.876 106.201 11.4408C106.538 11.9957 106.707 12.6844 106.707 13.5069C106.707 14.3195 106.538 15.0032 106.201 15.5582C105.874 16.1032 105.448 16.5144 104.923 16.7919C104.408 17.0595 103.863 17.1932 103.288 17.1932ZM103.288 16.5243C103.932 16.5243 104.428 16.2717 104.775 15.7663C105.121 15.251 105.295 14.4979 105.295 13.5069C105.295 12.5061 105.121 11.743 104.775 11.2178C104.428 10.6926 103.932 10.43 103.288 10.43C102.644 10.43 102.149 10.6926 101.802 11.2178C101.465 11.743 101.296 12.5061 101.296 13.5069C101.296 14.4979 101.465 15.251 101.802 15.7663C102.149 16.2717 102.644 16.5243 103.288 16.5243ZM107.968 17V16.4649L109.068 16.2568C109.078 15.8802 109.083 15.4739 109.083 15.0379C109.092 14.6019 109.097 14.2154 109.097 13.8785V13.165C109.097 12.7588 109.092 12.4218 109.083 12.1543C109.083 11.8867 109.073 11.6043 109.053 11.307L107.879 11.1732V10.653L109.96 9.74629L110.183 9.89493L110.301 11.0841C110.668 10.6877 111.089 10.3656 111.565 10.1179C112.041 9.87015 112.506 9.74629 112.962 9.74629C113.606 9.74629 114.082 9.96429 114.389 10.4003C114.706 10.8264 114.865 11.525 114.865 12.4962V13.8785C114.865 14.2154 114.865 14.6019 114.865 15.0379C114.875 15.4739 114.885 15.8802 114.894 16.2568L115.935 16.4649V17H112.486V16.4649L113.586 16.2568C113.596 15.8901 113.601 15.4888 113.601 15.0528C113.611 14.6069 113.616 14.2154 113.616 13.8785V12.6151C113.616 11.9313 113.517 11.4606 113.319 11.203C113.131 10.9453 112.818 10.8165 112.382 10.8165C112.045 10.8165 111.718 10.8859 111.401 11.0246C111.084 11.1633 110.737 11.3913 110.361 11.7084V13.8785C110.361 14.2055 110.361 14.592 110.361 15.0379C110.371 15.4739 110.381 15.8802 110.391 16.2568L111.416 16.4649V17H107.968ZM64.654 21.6653V21.0559H68.8606V21.6653L67.4931 21.8288C67.4832 22.4531 67.4733 23.0873 67.4634 23.7314C67.4634 24.3755 67.4634 25.0196 67.4634 25.6638V26.3921C67.4634 27.0263 67.4634 27.6655 67.4634 28.3096C67.4733 28.9438 67.4832 29.5829 67.4931 30.2271L68.8606 30.3906V31H64.654V30.3906L66.0215 30.2271C66.0413 29.6028 66.0513 28.9686 66.0513 28.3244C66.0513 27.6803 66.0513 27.0362 66.0513 26.3921V25.6638C66.0513 25.0196 66.0513 24.3805 66.0513 23.7463C66.0513 23.1022 66.0413 22.463 66.0215 21.8288L64.654 21.6653ZM70.1106 31V30.4649L71.2105 30.2568C71.2204 29.8802 71.2254 29.4739 71.2254 29.0379C71.2353 28.6019 71.2402 28.2154 71.2402 27.8785V27.165C71.2402 26.7588 71.2353 26.4218 71.2254 26.1543C71.2254 25.8867 71.2155 25.6043 71.1957 25.307L70.0214 25.1732V24.653L72.1024 23.7463L72.3253 23.8949L72.4442 25.0841C72.8109 24.6877 73.232 24.3656 73.7077 24.1179C74.1833 23.8702 74.6491 23.7463 75.1049 23.7463C75.749 23.7463 76.2247 23.9643 76.5319 24.4003C76.849 24.8264 77.0075 25.525 77.0075 26.4962V27.8785C77.0075 28.2154 77.0075 28.6019 77.0075 29.0379C77.0174 29.4739 77.0274 29.8802 77.0373 30.2568L78.0778 30.4649V31H74.6293V30.4649L75.7292 30.2568C75.7391 29.8901 75.7441 29.4888 75.7441 29.0528C75.754 28.6069 75.759 28.2154 75.759 27.8785V26.6151C75.759 25.9313 75.6599 25.4606 75.4617 25.203C75.2734 24.9453 74.9612 24.8165 74.5252 24.8165C74.1883 24.8165 73.8613 24.8859 73.5442 25.0246C73.2271 25.1633 72.8803 25.3913 72.5037 25.7084V27.8785C72.5037 28.2055 72.5037 28.592 72.5037 29.0379C72.5136 29.4739 72.5235 29.8802 72.5334 30.2568L73.5591 30.4649V31H70.1106ZM82.499 31.1932C81.4784 31.1932 80.6658 30.8613 80.0613 30.1973C79.4568 29.5334 79.1546 28.6316 79.1546 27.4921C79.1546 26.7092 79.3132 26.0403 79.6303 25.4854C79.9573 24.9206 80.3834 24.4895 80.9086 24.1922C81.4338 23.8949 81.9937 23.7463 82.5882 23.7463C83.0341 23.7463 83.4454 23.8305 83.8219 23.999C84.1985 24.1674 84.5107 24.4003 84.7584 24.6976C85.0061 24.985 85.1597 25.312 85.2192 25.6786C85.1498 26.0552 84.9219 26.2435 84.5354 26.2435C84.2877 26.2435 84.0994 26.1791 83.9706 26.0502C83.8517 25.9115 83.7674 25.7381 83.7179 25.53L83.4503 24.549C83.3116 24.4994 83.1729 24.4697 83.0341 24.4598C82.9053 24.4399 82.7765 24.43 82.6477 24.43C82.0135 24.43 81.4883 24.6778 81.0721 25.1732C80.6658 25.6687 80.4626 26.3921 80.4626 27.3434C80.4626 28.2749 80.6856 28.9884 81.1315 29.4839C81.5775 29.9793 82.1473 30.2271 82.8409 30.2271C83.267 30.2271 83.6584 30.1329 84.0152 29.9446C84.3719 29.7465 84.6643 29.464 84.8922 29.0974L85.2638 29.2906C85.0557 29.905 84.7188 30.3757 84.253 30.7027C83.7873 31.0297 83.2026 31.1932 82.499 31.1932ZM89.1029 31.1932C88.4984 31.1932 88.0228 30.995 87.6759 30.5987C87.3291 30.1924 87.1607 29.4987 87.1706 28.5177L87.2152 24.8165L86.1598 24.5935V24.0584L88.3448 23.8503L88.4935 23.999L88.4192 26.08V28.3839C88.4192 29.028 88.5183 29.4839 88.7164 29.7514C88.9146 30.0091 89.2119 30.1379 89.6083 30.1379C90.302 30.1379 90.9956 29.8158 91.6893 29.1717L91.7339 24.8016L90.6785 24.5935V24.0584L92.8338 23.8503L92.9825 23.999L92.9379 26.08V30.2568L93.9486 30.4649V31L91.8825 31.1189L91.7339 29.796C91.3375 30.2816 90.9114 30.6383 90.4555 30.8662C90.0096 31.0842 89.5587 31.1932 89.1029 31.1932ZM94.9 31V30.4649L96.0149 30.2717C96.0248 29.8951 96.0297 29.4888 96.0297 29.0528C96.0396 28.6069 96.0446 28.2154 96.0446 27.8785V21.3532L94.8257 21.2045V20.6843L97.0999 20.0154L97.308 20.1343L97.2486 22.245V24.8908C97.6053 24.4944 97.972 24.2071 98.3485 24.0287C98.735 23.8404 99.1314 23.7463 99.5377 23.7463C100.063 23.7463 100.539 23.89 100.965 24.1773C101.391 24.4647 101.728 24.8809 101.975 25.4259C102.233 25.971 102.362 26.6299 102.362 27.4029C102.362 28.1659 102.228 28.8348 101.961 29.4095C101.693 29.9744 101.326 30.4153 100.861 30.7324C100.405 31.0396 99.8845 31.1932 99.2998 31.1932C98.953 31.1932 98.6062 31.1189 98.2594 30.9703C97.9125 30.8216 97.5756 30.5442 97.2486 30.1379L97.1297 31.1486L94.9 31ZM99.1363 24.5935C98.9084 24.5935 98.6458 24.653 98.3485 24.7719C98.0513 24.8908 97.6995 25.1187 97.2932 25.4557V29.5284C97.6004 29.8158 97.9026 30.0239 98.1999 30.1527C98.4972 30.2816 98.7846 30.346 99.062 30.346C99.5872 30.346 100.043 30.1181 100.43 29.6622C100.826 29.1965 101.024 28.483 101.024 27.5218C101.024 26.5705 100.846 25.8471 100.489 25.3516C100.142 24.8462 99.6913 24.5935 99.1363 24.5935ZM109.216 31.1486C108.86 31.1486 108.562 31.0446 108.325 30.8365C108.087 30.6284 107.938 30.3509 107.879 30.0041C107.472 30.4005 107.116 30.6978 106.808 30.896C106.501 31.0941 106.13 31.1932 105.694 31.1932C105.149 31.1932 104.678 31.0396 104.282 30.7324C103.895 30.4153 103.702 29.9496 103.702 29.3352C103.702 29.0478 103.766 28.7803 103.895 28.5325C104.034 28.2848 104.282 28.042 104.638 27.8042C104.995 27.5664 105.505 27.3286 106.169 27.0907C106.397 27.0114 106.66 26.9272 106.957 26.838C107.254 26.7488 107.552 26.6696 107.849 26.6002V26.2286C107.849 25.5052 107.74 25.0246 107.522 24.7868C107.304 24.549 106.947 24.43 106.452 24.43C106.343 24.43 106.219 24.435 106.08 24.4449C105.951 24.4548 105.808 24.4796 105.649 24.5192L105.367 25.4854C105.228 25.961 104.97 26.1989 104.594 26.1989C104.177 26.1989 103.945 25.9957 103.895 25.5894C104.034 25.0246 104.361 24.5787 104.876 24.2517C105.401 23.9147 106.04 23.7463 106.794 23.7463C107.576 23.7463 108.156 23.9445 108.533 24.3409C108.909 24.7273 109.098 25.3913 109.098 26.3327V29.4987C109.098 29.8158 109.147 30.0437 109.246 30.1825C109.345 30.3113 109.474 30.3757 109.633 30.3757C109.761 30.3757 109.87 30.346 109.96 30.2865C110.049 30.2271 110.133 30.1478 110.212 30.0487L110.51 30.3757C110.331 30.6631 110.133 30.8662 109.915 30.9851C109.707 31.0941 109.474 31.1486 109.216 31.1486ZM105.025 29.1123C105.025 29.5086 105.139 29.791 105.367 29.9595C105.595 30.128 105.877 30.2122 106.214 30.2122C106.363 30.2122 106.501 30.1924 106.63 30.1527C106.769 30.1131 106.932 30.0388 107.121 29.9298C107.309 29.8109 107.552 29.6424 107.849 29.4244V27.1502C107.591 27.2195 107.339 27.2988 107.091 27.388C106.843 27.4673 106.64 27.5366 106.481 27.5961C106.055 27.7646 105.738 27.938 105.53 28.1164C105.322 28.2947 105.183 28.4681 105.114 28.6366C105.054 28.8051 105.025 28.9636 105.025 29.1123ZM113.643 31.1932C113.128 31.1932 112.716 31.0545 112.409 30.777C112.102 30.4996 111.948 30.0735 111.948 29.4987C111.948 29.3104 111.948 29.1271 111.948 28.9487C111.958 28.7605 111.963 28.5226 111.963 28.2353V24.7273H110.729V24.0733L112.052 23.9098L112.439 21.918H113.331L113.242 23.9395H115.248V24.7273H113.227V29.3352C113.227 29.7118 113.301 29.9892 113.45 30.1676C113.598 30.3361 113.796 30.4203 114.044 30.4203C114.213 30.4203 114.371 30.3856 114.52 30.3162C114.678 30.2469 114.852 30.1478 115.04 30.019L115.397 30.4054C114.991 30.9306 114.406 31.1932 113.643 31.1932ZM119.502 31.1932C118.927 31.1932 118.377 31.0595 117.852 30.7919C117.337 30.5144 116.916 30.1032 116.589 29.5582C116.262 29.0032 116.098 28.3195 116.098 27.5069C116.098 26.6844 116.262 25.9957 116.589 25.4408C116.916 24.876 117.337 24.4548 117.852 24.1773C118.377 23.89 118.927 23.7463 119.502 23.7463C120.077 23.7463 120.622 23.89 121.137 24.1773C121.662 24.4548 122.089 24.876 122.416 25.4408C122.753 25.9957 122.921 26.6844 122.921 27.5069C122.921 28.3195 122.753 29.0032 122.416 29.5582C122.089 30.1032 121.662 30.5144 121.137 30.7919C120.622 31.0595 120.077 31.1932 119.502 31.1932ZM119.502 30.5243C120.146 30.5243 120.642 30.2717 120.989 29.7663C121.335 29.251 121.509 28.4979 121.509 27.5069C121.509 26.5061 121.335 25.743 120.989 25.2178C120.642 24.6926 120.146 24.43 119.502 24.43C118.858 24.43 118.363 24.6926 118.016 25.2178C117.679 25.743 117.51 26.5061 117.51 27.5069C117.51 28.4979 117.679 29.251 118.016 29.7663C118.363 30.2717 118.858 30.5243 119.502 30.5243ZM124.212 31V30.4649L125.282 30.2717C125.292 29.8951 125.297 29.4888 125.297 29.0528C125.307 28.6069 125.312 28.2154 125.312 27.8785V27.165C125.312 26.7588 125.307 26.4218 125.297 26.1543C125.297 25.8867 125.287 25.6043 125.267 25.307L124.093 25.1732V24.653L126.174 23.7463L126.397 23.8949L126.56 25.6489C126.808 25.0543 127.125 24.5886 127.511 24.2517C127.908 23.9147 128.304 23.7463 128.701 23.7463C128.929 23.7463 129.142 23.7958 129.34 23.8949C129.538 23.994 129.682 24.1278 129.771 24.2963C129.771 25.0196 129.478 25.3813 128.894 25.3813C128.725 25.3813 128.567 25.3516 128.418 25.2922C128.27 25.2228 128.126 25.1287 127.987 25.0097L127.809 24.8462C127.511 25.0642 127.264 25.3318 127.066 25.6489C126.867 25.966 126.704 26.3376 126.575 26.7637V27.8785C126.575 28.2055 126.575 28.5871 126.575 29.0231C126.585 29.4591 126.595 29.8654 126.605 30.2419L127.824 30.4649V31H124.212ZM64.2973 37.7017L64.4162 35.0559H72.5618L72.6807 37.7017H71.8186L71.4915 35.7991H69.2173C69.2074 36.4333 69.1975 37.0724 69.1876 37.7166C69.1876 38.3607 69.1876 39.0097 69.1876 39.6638V40.3921C69.1876 41.0263 69.1876 41.6655 69.1876 42.3096C69.1975 42.9438 69.2074 43.5829 69.2173 44.2271L70.7335 44.3906V45H66.2445V44.3906L67.7606 44.2271C67.7805 43.5929 67.7904 42.9587 67.7904 42.3244C67.7904 41.6803 67.7904 41.0362 67.7904 40.3921V39.6638C67.7904 39.0196 67.7904 38.3755 67.7904 37.7314C67.7904 37.0873 67.7805 36.4432 67.7606 35.7991H65.4864L65.1594 37.7017H64.2973ZM78.5446 45.1486C78.1878 45.1486 77.8906 45.0446 77.6527 44.8365C77.4149 44.6284 77.2663 44.3509 77.2068 44.0041C76.8005 44.4005 76.4438 44.6978 76.1366 44.896C75.8294 45.0941 75.4578 45.1932 75.0218 45.1932C74.4768 45.1932 74.0061 45.0396 73.6097 44.7324C73.2232 44.4153 73.03 43.9496 73.03 43.3352C73.03 43.0478 73.0944 42.7803 73.2232 42.5325C73.3619 42.2848 73.6097 42.042 73.9664 41.8042C74.3232 41.5664 74.8335 41.3286 75.4974 41.0907C75.7254 41.0114 75.988 40.9272 76.2852 40.838C76.5825 40.7488 76.8798 40.6696 77.1771 40.6002V40.2286C77.1771 39.5052 77.0681 39.0246 76.8501 38.7868C76.6321 38.549 76.2753 38.43 75.7799 38.43C75.6708 38.43 75.547 38.435 75.4082 38.4449C75.2794 38.4548 75.1357 38.4796 74.9772 38.5192L74.6948 39.4854C74.556 39.961 74.2984 40.1989 73.9218 40.1989C73.5056 40.1989 73.2728 39.9957 73.2232 39.5894C73.3619 39.0246 73.689 38.5787 74.2043 38.2517C74.7295 37.9147 75.3686 37.7463 76.1217 37.7463C76.9046 37.7463 77.4843 37.9445 77.8608 38.3409C78.2374 38.7273 78.4257 39.3913 78.4257 40.3327V43.4987C78.4257 43.8158 78.4752 44.0437 78.5743 44.1825C78.6734 44.3113 78.8022 44.3757 78.9608 44.3757C79.0896 44.3757 79.1986 44.346 79.2878 44.2865C79.377 44.2271 79.4612 44.1478 79.5405 44.0487L79.8378 44.3757C79.6594 44.6631 79.4612 44.8662 79.2432 44.9851C79.0351 45.0941 78.8022 45.1486 78.5446 45.1486ZM74.3529 43.1123C74.3529 43.5086 74.4669 43.791 74.6948 43.9595C74.9227 44.128 75.2051 44.2122 75.542 44.2122C75.6907 44.2122 75.8294 44.1924 75.9582 44.1527C76.097 44.1131 76.2605 44.0388 76.4487 43.9298C76.637 43.8109 76.8798 43.6424 77.1771 43.4244V41.1502C76.9194 41.2195 76.6667 41.2988 76.419 41.388C76.1713 41.4673 75.9681 41.5366 75.8096 41.5961C75.3835 41.7646 75.0664 41.938 74.8583 42.1164C74.6502 42.2947 74.5114 42.4681 74.4421 42.6366C74.3826 42.8051 74.3529 42.9636 74.3529 43.1123ZM82.8967 45.1932C82.4805 45.1932 82.0989 45.1437 81.7521 45.0446C81.4053 44.9554 81.0485 44.8167 80.6819 44.6284L80.6224 42.9933H81.44L81.7224 44.2865C82.0692 44.4451 82.4705 44.5243 82.9264 44.5243C83.4912 44.5243 83.9074 44.4203 84.175 44.2122C84.4524 44.0041 84.5912 43.7316 84.5912 43.3947C84.5912 43.0776 84.4772 42.8249 84.2493 42.6366C84.0214 42.4384 83.6745 42.26 83.2088 42.1015L82.5251 41.8488C81.98 41.6506 81.544 41.393 81.217 41.0759C80.89 40.7588 80.7265 40.3475 80.7265 39.8421C80.7265 39.4755 80.8256 39.1336 81.0238 38.8165C81.222 38.4994 81.5143 38.2418 81.9008 38.0436C82.2872 37.8454 82.7579 37.7463 83.3129 37.7463C83.7191 37.7463 84.0858 37.8008 84.4128 37.9098C84.7497 38.0089 85.0767 38.1575 85.3938 38.3557L85.3344 39.8719H84.5614L84.3236 38.6827C83.9867 38.5143 83.6448 38.43 83.298 38.43C82.8422 38.43 82.4953 38.5242 82.2575 38.7125C82.0296 38.8908 81.9156 39.1336 81.9156 39.4408C81.9156 39.7678 82.0147 40.0155 82.2129 40.184C82.421 40.3525 82.7777 40.5308 83.2831 40.7191L83.7439 40.8826C84.4871 41.1601 85.0123 41.4772 85.3195 41.8339C85.6366 42.1907 85.7952 42.6019 85.7952 43.0677C85.7952 43.4442 85.6862 43.796 85.4682 44.123C85.2501 44.4401 84.9281 44.6978 84.502 44.896C84.0759 45.0941 83.5408 45.1932 82.8967 45.1932ZM86.6696 45V44.4649L87.7844 44.2568C87.7943 43.8802 87.7993 43.4739 87.7993 43.0379C87.8092 42.592 87.8141 42.2055 87.8141 41.8785V35.3532L86.5953 35.2045V34.6843L88.8695 34.0154L89.0776 34.1343L89.0181 36.245V39.1138C89.3848 38.7075 89.8109 38.3805 90.2965 38.1328C90.782 37.8751 91.2626 37.7463 91.7383 37.7463C92.3824 37.7463 92.858 37.9643 93.1652 38.4003C93.4823 38.8264 93.6409 39.525 93.6409 40.4962V41.8785C93.6409 42.2154 93.6409 42.6019 93.6409 43.0379C93.6508 43.4739 93.6607 43.8802 93.6706 44.2568L94.7111 44.4649V45H91.2626V44.4649L92.3477 44.2717C92.3576 43.8951 92.3626 43.4888 92.3626 43.0528C92.3725 42.6069 92.3774 42.2154 92.3774 41.8785V40.6151C92.3774 39.9313 92.2833 39.4606 92.095 39.203C91.9067 38.9453 91.5946 38.8165 91.1586 38.8165C90.7919 38.8165 90.4451 38.8908 90.1181 39.0395C89.7911 39.1881 89.4393 39.4358 89.0627 39.7827V41.8785C89.0627 42.2055 89.0627 42.592 89.0627 43.0379C89.0726 43.4739 89.0825 43.8802 89.0925 44.2568L90.1181 44.4649V45H86.6696ZM95.5225 45V44.4649L96.7116 44.2568C96.7215 43.8604 96.7265 43.464 96.7265 43.0677C96.7364 42.6614 96.7413 42.265 96.7413 41.8785V35.3532L95.5225 35.2045V34.6843L97.8413 34.0154L98.0494 34.1343L97.9899 36.245V41.4326L100.532 38.7868L99.4318 38.5192V37.9395H102.895V38.5192L101.498 38.7273L99.8628 40.407L102.301 44.2865L103.282 44.4649V45H101.26L98.971 41.3137L97.9899 42.3244C97.9899 42.6416 97.9899 42.9636 97.9899 43.2906C97.9998 43.6176 98.0098 43.9397 98.0197 44.2568L99.2088 44.4649V45H95.5225ZM106.988 38.43C106.71 38.43 106.428 38.5093 106.141 38.6679C105.863 38.8264 105.62 39.0791 105.412 39.4259C105.214 39.7728 105.085 40.2336 105.026 40.8083H107.731C108.088 40.8083 108.321 40.734 108.43 40.5853C108.549 40.4367 108.608 40.2534 108.608 40.0354C108.608 39.748 108.534 39.4854 108.385 39.2476C108.246 38.9998 108.053 38.8016 107.805 38.653C107.568 38.5044 107.295 38.43 106.988 38.43ZM106.973 45.1932C105.972 45.1932 105.169 44.8712 104.565 44.2271C103.961 43.573 103.658 42.6762 103.658 41.5366C103.658 40.7736 103.812 40.1097 104.119 39.5449C104.436 38.98 104.852 38.539 105.368 38.2219C105.893 37.9048 106.463 37.7463 107.077 37.7463C107.592 37.7463 108.058 37.8602 108.474 38.0882C108.89 38.3161 109.222 38.6431 109.47 39.0692C109.718 39.4854 109.842 39.9957 109.842 40.6002C109.842 40.7687 109.832 40.9272 109.812 41.0759C109.792 41.2146 109.767 41.3335 109.738 41.4326H104.996C105.016 42.3443 105.244 43.0379 105.68 43.5136C106.116 43.9892 106.691 44.2271 107.404 44.2271C107.88 44.2271 108.276 44.1329 108.593 43.9446C108.91 43.7465 109.203 43.4938 109.47 43.1866L109.827 43.469C109.549 43.9942 109.173 44.4153 108.697 44.7324C108.222 45.0396 107.647 45.1932 106.973 45.1932ZM111.161 45V44.4649L112.261 44.2568C112.271 43.8802 112.276 43.4739 112.276 43.0379C112.286 42.6019 112.291 42.2154 112.291 41.8785V41.165C112.291 40.7588 112.286 40.4218 112.276 40.1543C112.276 39.8867 112.266 39.6043 112.246 39.307L111.072 39.1732V38.653L113.153 37.7463L113.376 37.8949L113.495 39.0841C113.862 38.6877 114.283 38.3656 114.758 38.1179C115.234 37.8702 115.7 37.7463 116.156 37.7463C116.8 37.7463 117.275 37.9643 117.583 38.4003C117.9 38.8264 118.058 39.525 118.058 40.4962V41.8785C118.058 42.2154 118.058 42.6019 118.058 43.0379C118.068 43.4739 118.078 43.8802 118.088 44.2568L119.128 44.4649V45H115.68V44.4649L116.78 44.2568C116.79 43.8901 116.795 43.4888 116.795 43.0528C116.805 42.6069 116.81 42.2154 116.81 41.8785V40.6151C116.81 39.9313 116.711 39.4606 116.512 39.203C116.324 38.9453 116.012 38.8165 115.576 38.8165C115.239 38.8165 114.912 38.8859 114.595 39.0246C114.278 39.1633 113.931 39.3913 113.554 39.7084V41.8785C113.554 42.2055 113.554 42.592 113.554 43.0379C113.564 43.4739 113.574 43.8802 113.584 44.2568L114.61 44.4649V45H111.161ZM122.556 45.1932C122.04 45.1932 121.629 45.0545 121.322 44.777C121.015 44.4996 120.861 44.0735 120.861 43.4987C120.861 43.3104 120.861 43.1271 120.861 42.9487C120.871 42.7605 120.876 42.5226 120.876 42.2353V38.7273H119.642V38.0733L120.965 37.9098L121.352 35.918H122.243L122.154 37.9395H124.161V38.7273H122.139V43.3352C122.139 43.7118 122.214 43.9892 122.362 44.1676C122.511 44.3361 122.709 44.4203 122.957 44.4203C123.125 44.4203 123.284 44.3856 123.433 44.3162C123.591 44.2469 123.764 44.1478 123.953 44.019L124.31 44.4054C123.903 44.9306 123.319 45.1932 122.556 45.1932Z" fill="#063796"/>
<rect x="58" width="1" height="53" rx="0.5" fill="#063796"/>
</svg>
