<svg width="728" height="363" viewBox="0 0 728 363" fill="none" xmlns="http://www.w3.org/2000/svg">
<path fill-rule="evenodd" clip-rule="evenodd" d="M482 237H245V0H482V237Z" fill="#128CDB"/>
<path fill-rule="evenodd" clip-rule="evenodd" d="M341.872 100.99C333.609 102.47 327.443 109.776 327.443 118.408C327.443 127.224 333.609 134.715 341.872 136.01L337.371 144.457L345.972 139.956C345.972 139.956 348.593 154.568 363.423 154.568C372.21 154.568 379.517 148.372 381.028 140.141L389.63 144.457L385.128 136.01C393.391 134.499 399.557 127.193 399.557 118.408C399.557 109.776 393.576 102.47 384.943 100.99L389.63 92.3585L381.028 96.8593C378.962 88.4126 372.395 82.4321 363.423 82.4321C348.809 82.4321 345.972 96.8593 345.972 96.8593L337.371 92.3585L341.872 100.99V100.99ZM376.526 131.509C376.526 140.141 375.386 149.327 363.423 149.327C354.235 149.327 348.038 140.141 350.474 131.509C341.872 133.944 332.684 127.779 332.684 118.408C332.684 109.036 342.057 103.056 350.474 105.491C348.038 96.8593 354.235 87.6728 363.423 87.6728C372.765 87.6728 378.962 96.8593 376.526 105.491C384.943 103.056 394.316 109.036 394.316 118.408C394.316 127.779 385.128 133.944 376.526 131.509Z" fill="white"/>
<path fill-rule="evenodd" clip-rule="evenodd" d="M353.865 108.851L363.423 113.907L373.166 108.851L367.893 118.408L373.166 128.149L363.423 122.908L353.865 128.149L358.922 118.408L353.865 108.851Z" fill="white"/>
<path fill-rule="evenodd" clip-rule="evenodd" d="M426.935 99.4798C425.795 98.1851 423.729 98.1851 422.619 99.4798L407.82 114.277L403.504 118.408L402.579 119.518C402.394 121.583 401.993 123.463 401.253 125.159L403.319 127.224L407.82 122.724L422.619 137.521C423.729 138.63 425.795 138.63 426.935 137.521C428.045 136.38 428.045 134.53 426.935 133.205L412.136 118.408L426.935 103.611C428.045 102.47 428.045 100.62 426.935 99.4798V99.4798Z" fill="white"/>
<path fill-rule="evenodd" clip-rule="evenodd" d="M340.176 99.4795L337.925 95.3486L337 96.3043L332.499 100.805L333.609 102.1C335.675 100.805 337.925 99.8494 340.176 99.4795Z" fill="white"/>
<path fill-rule="evenodd" clip-rule="evenodd" d="M381.212 82.8018L404.428 59.5889C405.569 58.4483 405.569 56.5678 404.428 55.458C403.133 54.1325 401.253 54.1325 400.143 55.458L376.896 78.486L381.212 82.8018V82.8018Z" fill="white"/>
<path fill-rule="evenodd" clip-rule="evenodd" d="M334.75 94.0542L336.415 92.3587L335.305 90.2933L337.37 91.4339L339.035 89.7384L304.751 55.4585C303.641 54.3179 301.76 54.3179 300.465 55.4585C299.325 56.7532 299.325 58.6337 300.465 59.7743L334.75 94.0542V94.0542Z" fill="white"/>
<path fill-rule="evenodd" clip-rule="evenodd" d="M357.041 160.733L352.354 156.048L326.857 181.542C325.562 182.651 323.681 182.651 322.571 181.542C321.431 180.401 321.431 178.551 322.571 177.226L348.038 151.763L341.286 145.011L304.751 181.357C303.641 182.651 301.76 182.651 300.465 181.357C299.324 180.216 299.324 178.366 300.465 177.226L337 140.696L330.248 133.759L304.566 159.439C303.456 160.548 301.575 160.548 300.465 159.439C299.14 158.298 299.14 156.233 300.465 155.123L325.932 129.659L319.18 122.723L304.381 137.52C303.086 138.63 301.205 138.63 300.064 137.52C298.77 136.38 298.77 134.53 300.064 133.205L325.932 107.34L300.465 81.8772C299.14 80.7365 299.14 78.6711 300.465 77.5613C301.575 76.4516 303.456 76.4516 304.566 77.5613L330.248 103.055L330.988 103.98C327.258 107.156 324.822 112.026 324.421 117.452L323.311 118.407L324.421 119.517C325.007 128.519 331.543 135.825 340.176 137.52L335.305 146.707L344.492 141.836C345.972 149.697 352.354 156.048 360.586 157.188L357.041 160.733V160.733Z" fill="white"/>
<path fill-rule="evenodd" clip-rule="evenodd" d="M348.038 85.2372L322.571 59.5889C321.431 58.4483 321.431 56.5678 322.571 55.458C323.681 54.1325 325.562 54.1325 326.857 55.458L350.289 78.8868L353.68 82.062C348.994 84.8673 345.417 89.738 344.492 95.1636L340.361 92.9132L341.286 91.9884H341.471L348.038 85.2372V85.2372Z" fill="white"/>
<path fill-rule="evenodd" clip-rule="evenodd" d="M312.644 116.342L316.929 112.027L304.381 99.4798C303.086 98.1851 301.205 98.1851 300.064 99.4798C298.77 100.62 298.77 102.47 300.064 103.611L312.644 116.157V116.342V116.342Z" fill="white"/>
<path fill-rule="evenodd" clip-rule="evenodd" d="M357.041 71.9509L361.172 67.6351L348.809 55.0884C347.483 53.9478 345.602 53.9478 344.492 55.0884C343.167 56.1981 343.167 58.0786 344.492 59.4042L357.041 71.9509Z" fill="white"/>
<path fill-rule="evenodd" clip-rule="evenodd" d="M422.249 159.439L396.751 133.76L390.03 140.696L426.38 177.226C427.675 178.367 427.675 180.216 426.38 181.357C425.24 182.652 423.359 182.652 422.064 181.357L385.714 145.012L381.212 149.512L379.887 148.187C381.212 146.306 381.952 144.056 382.507 141.836L391.695 146.707L386.824 137.521C392.25 136.38 396.936 133.02 399.773 128.334L401.068 129.66L402.394 130.769L426.565 155.123C427.86 156.233 427.86 158.298 426.565 159.439C425.425 160.548 423.544 160.548 422.249 159.439V159.439Z" fill="white"/>
<path fill-rule="evenodd" clip-rule="evenodd" d="M378.037 150.992C374.645 154.753 369.959 157.188 364.533 157.558L363.423 158.483L359.291 162.799L344.492 177.596C343.167 178.737 343.167 180.802 344.492 181.912C345.602 183.053 347.483 183.053 348.778 181.912L363.423 167.115L378.222 181.912C379.517 183.053 381.397 183.053 382.507 181.912C383.648 180.802 383.648 178.737 382.507 177.596L367.708 162.799L374.645 156.048L400.143 181.542C401.253 182.652 403.133 182.652 404.428 181.542C405.569 180.401 405.569 178.552 404.428 177.226L380.472 153.243L378.037 150.992V150.992Z" fill="white"/>
<path fill-rule="evenodd" clip-rule="evenodd" d="M426.565 77.5613C427.86 78.6711 427.86 80.7365 426.565 81.8772L403.318 105.09L399.187 100.805L422.249 77.5613C423.544 76.4516 425.424 76.4516 426.565 77.5613V77.5613Z" fill="white"/>
<path fill-rule="evenodd" clip-rule="evenodd" d="M354.79 78.4863L378.222 55.0884C379.517 53.9478 381.397 53.9478 382.507 55.0884C383.648 56.1981 383.648 58.0786 382.507 59.4042L367.708 74.0163L385.714 91.9886L422.064 55.4583C423.359 54.3177 425.239 54.3177 426.349 55.4583C427.675 56.753 427.675 58.6335 426.349 59.7741L389.999 96.3044L405.754 112.026L402.394 115.417C401.068 107.341 394.686 100.99 386.824 99.4796L391.695 90.2931L382.507 95.1638C380.842 86.563 373.535 79.9968 364.533 79.4419L363.392 78.3013L362.282 79.4419C360.401 79.6269 358.521 79.9968 356.856 80.5517L354.79 78.4863V78.4863Z" fill="white"/>
<path fill-rule="evenodd" clip-rule="evenodd" d="M466.461 15.5368H260.539V221.432H466.461V15.5368V15.5368ZM258.288 10.8511H470.962V225.933H255.853V10.8511H258.288V10.8511Z" fill="white"/>
<path fill-rule="evenodd" clip-rule="evenodd" d="M382.137 100.62H382.692H383.093H383.463C382.908 100.62 382.322 100.62 381.767 100.62H381.397V100.219V100.62H381.767H382.137V100.62Z" fill="white"/>
<path fill-rule="evenodd" clip-rule="evenodd" d="M381.212 98.3696V98.9245L381.397 99.2944V99.6644V100.219C381.397 99.6644 381.397 99.1095 381.212 98.3696V98.3696Z" fill="white"/>
<path fill-rule="evenodd" clip-rule="evenodd" d="M344.862 136.38H344.307L343.937 136.195H343.352C343.937 136.38 344.677 136.38 345.232 136.38H345.602V136.75V136.565V136.38H345.232H344.862V136.38Z" fill="white"/>
<path fill-rule="evenodd" clip-rule="evenodd" d="M345.788 138.445L345.603 138.075V137.705V137.52V137.15V136.75C345.603 137.335 345.603 137.89 345.788 138.445Z" fill="white"/>
<path fill-rule="evenodd" clip-rule="evenodd" d="M381.397 137.15V137.52V137.705L381.212 138.075V138.445C381.397 137.89 381.397 137.335 381.397 136.75V137.15Z" fill="white"/>
<path fill-rule="evenodd" clip-rule="evenodd" d="M383.463 136.195H383.093L382.692 136.38H382.137H381.767H381.397V136.565V136.75V136.38H381.767C382.322 136.38 382.908 136.38 383.463 136.195V136.195Z" fill="white"/>
<path d="M256.953 249.772H260.421L269.45 273H265.59L263.136 266.686H254.173L251.752 273H247.859L256.953 249.772ZM262.417 263.971L258.687 253.796L254.827 263.971H262.417ZM269.956 261.223C269.956 259.805 270.207 258.42 270.709 257.068C271.21 255.694 271.941 254.451 272.9 253.338C273.882 252.204 275.071 251.31 276.466 250.656C277.862 249.98 279.443 249.642 281.21 249.642C283.304 249.642 285.114 250.121 286.641 251.081C288.167 252.019 289.302 253.229 290.043 254.712L287.164 256.643C286.728 255.705 286.172 254.963 285.496 254.418C284.841 253.873 284.122 253.491 283.337 253.273C282.573 253.055 281.821 252.946 281.079 252.946C279.858 252.946 278.789 253.197 277.873 253.698C276.957 254.178 276.183 254.821 275.55 255.628C274.94 256.435 274.471 257.341 274.144 258.344C273.838 259.347 273.686 260.35 273.686 261.354C273.686 262.466 273.871 263.545 274.242 264.592C274.613 265.617 275.125 266.533 275.779 267.34C276.455 268.125 277.252 268.747 278.168 269.205C279.084 269.663 280.087 269.892 281.177 269.892C281.919 269.892 282.693 269.761 283.5 269.5C284.307 269.238 285.049 268.834 285.725 268.289C286.423 267.722 286.968 266.98 287.36 266.064L290.403 267.798C289.923 268.954 289.171 269.936 288.146 270.743C287.142 271.55 286.008 272.16 284.743 272.575C283.5 272.989 282.268 273.196 281.046 273.196C279.411 273.196 277.917 272.858 276.565 272.182C275.212 271.484 274.045 270.568 273.064 269.434C272.083 268.278 271.319 266.991 270.774 265.574C270.229 264.134 269.956 262.684 269.956 261.223ZM292.032 261.223C292.032 259.805 292.283 258.42 292.785 257.068C293.286 255.694 294.017 254.451 294.977 253.338C295.958 252.204 297.147 251.31 298.543 250.656C299.938 249.98 301.52 249.642 303.286 249.642C305.38 249.642 307.19 250.121 308.717 251.081C310.244 252.019 311.378 253.229 312.119 254.712L309.24 256.643C308.804 255.705 308.248 254.963 307.572 254.418C306.918 253.873 306.198 253.491 305.413 253.273C304.649 253.055 303.897 252.946 303.155 252.946C301.934 252.946 300.865 253.197 299.949 253.698C299.033 254.178 298.259 254.821 297.626 255.628C297.016 256.435 296.547 257.341 296.22 258.344C295.914 259.347 295.762 260.35 295.762 261.354C295.762 262.466 295.947 263.545 296.318 264.592C296.689 265.617 297.201 266.533 297.855 267.34C298.532 268.125 299.328 268.747 300.244 269.205C301.16 269.663 302.163 269.892 303.253 269.892C303.995 269.892 304.769 269.761 305.576 269.5C306.383 269.238 307.125 268.834 307.801 268.289C308.499 267.722 309.044 266.98 309.437 266.064L312.479 267.798C311.999 268.954 311.247 269.936 310.222 270.743C309.218 271.55 308.084 272.16 306.819 272.575C305.576 272.989 304.344 273.196 303.123 273.196C301.487 273.196 299.993 272.858 298.641 272.182C297.288 271.484 296.122 270.568 295.14 269.434C294.159 268.278 293.395 266.991 292.85 265.574C292.305 264.134 292.032 262.684 292.032 261.223ZM325.231 273.164C323.552 273.164 322.036 272.836 320.684 272.182C319.332 271.528 318.165 270.645 317.184 269.532C316.202 268.398 315.439 267.133 314.894 265.737C314.37 264.32 314.108 262.869 314.108 261.386C314.108 259.838 314.392 258.366 314.959 256.97C315.526 255.552 316.311 254.298 317.314 253.208C318.318 252.095 319.495 251.223 320.848 250.59C322.222 249.936 323.705 249.609 325.297 249.609C326.954 249.609 328.459 249.947 329.812 250.623C331.186 251.299 332.352 252.204 333.312 253.338C334.293 254.473 335.046 255.737 335.569 257.133C336.115 258.529 336.387 259.958 336.387 261.419C336.387 262.967 336.104 264.451 335.537 265.868C334.991 267.264 334.217 268.518 333.214 269.63C332.211 270.721 331.022 271.582 329.648 272.215C328.296 272.847 326.824 273.164 325.231 273.164ZM317.838 261.386C317.838 262.477 318.012 263.535 318.361 264.56C318.71 265.585 319.201 266.501 319.833 267.308C320.488 268.093 321.273 268.714 322.189 269.172C323.105 269.63 324.13 269.859 325.264 269.859C326.442 269.859 327.489 269.619 328.405 269.14C329.321 268.66 330.084 268.016 330.695 267.209C331.327 266.381 331.807 265.465 332.134 264.461C332.461 263.436 332.625 262.411 332.625 261.386C332.625 260.296 332.451 259.249 332.102 258.246C331.774 257.221 331.284 256.315 330.629 255.53C329.975 254.723 329.19 254.091 328.274 253.633C327.38 253.175 326.376 252.946 325.264 252.946C324.086 252.946 323.04 253.186 322.124 253.666C321.208 254.145 320.433 254.789 319.801 255.596C319.168 256.403 318.678 257.308 318.329 258.311C318.001 259.314 317.838 260.339 317.838 261.386ZM357.618 277.417V273H340.181V249.772H343.845V269.761H354.215V249.772H357.912V269.761H360.856V277.417H357.618ZM364.752 273V249.772H368.417V267.831L380.815 249.772H384.251V273H380.586V255.236L368.318 273H364.752ZM396.343 249.772H399.81L408.84 273H404.979L402.526 266.686H393.562L391.141 273H387.248L396.343 249.772ZM401.806 263.971L398.077 253.796L394.216 263.971H401.806ZM429.149 277.417V273H411.712V249.772H415.376V269.761H425.747V249.772H429.444V269.761H432.388V277.417H429.149ZM436.284 273V249.772H439.948V267.831L452.347 249.772H455.782V273H452.118V255.236L439.85 273H436.284ZM460.514 273L466.402 263.48C464.876 263.044 463.687 262.226 462.836 261.026C461.986 259.827 461.56 258.409 461.56 256.773C461.56 255.443 461.877 254.254 462.509 253.208C463.164 252.161 464.069 251.332 465.225 250.721C466.38 250.089 467.722 249.772 469.248 249.772H477.656V273H473.992V263.938H470.982C470.851 263.938 470.71 263.938 470.557 263.938C470.426 263.938 470.295 263.938 470.164 263.938L464.734 273H460.514ZM469.641 260.765H473.992V252.946H469.739C468.91 252.946 468.158 253.098 467.482 253.404C466.806 253.687 466.271 254.113 465.879 254.68C465.508 255.247 465.323 255.945 465.323 256.773C465.323 257.602 465.497 258.311 465.846 258.9C466.195 259.489 466.686 259.947 467.318 260.274C467.973 260.601 468.747 260.765 469.641 260.765ZM14.3789 351.163C12.828 351.163 11.374 350.848 10.0169 350.218C8.65989 349.637 7.5694 348.813 6.74547 347.746C5.92154 346.632 5.50957 345.371 5.50957 343.966C5.50957 342.463 5.94577 341.082 6.81817 339.822C7.69056 338.562 9.09609 337.932 11.0347 337.932C12.6826 337.932 13.9185 338.392 14.7424 339.313C15.6148 340.186 16.051 341.228 16.051 342.439C16.051 342.972 15.9541 343.506 15.7602 344.039C15.6148 344.572 15.3483 345.105 14.9605 345.638C15.0575 345.783 15.1786 345.905 15.324 346.002C15.5179 346.098 15.736 346.147 15.9783 346.147C17.2384 346.147 18.5713 345.202 19.9768 343.312C20.413 342.682 20.825 342.027 21.2127 341.349C21.6004 340.67 22.0124 339.846 22.4486 338.877C22.8848 337.859 23.3937 336.623 23.9753 335.169C24.5569 333.667 25.2354 331.849 26.0109 329.717C26.8348 327.536 27.8041 324.919 28.9188 321.865C30.0336 318.812 31.3422 315.225 32.8446 311.106C33.3778 309.749 33.8867 308.489 34.3713 307.325C34.856 306.162 35.4133 305.193 36.0434 304.417L30.4455 304.708V299.11H46.2214V303.908C45.1066 303.908 44.1373 304.102 43.3134 304.49C42.4894 304.829 41.7382 305.508 41.0597 306.526C40.3812 307.495 39.6784 308.925 38.9514 310.815L28.3373 338.804C26.9802 342.342 25.5262 345.008 23.9753 346.801C22.4244 348.546 20.825 349.709 19.1771 350.291C17.5777 350.872 15.9783 351.163 14.3789 351.163ZM24.048 338.586L6.81817 311.615C6.13964 310.5 5.50957 309.24 4.92798 307.834C4.34638 306.38 4.05558 305.266 4.05558 304.49L0.4933 304.708V299.11H21.9397V303.908C20.5342 303.812 19.371 303.957 18.4501 304.345C17.5292 304.732 16.9719 305.362 16.778 306.235C16.5841 307.059 16.8749 308.149 17.6504 309.506L23.6845 319.975C24.4115 321.187 25.2596 322.544 26.229 324.046C27.1983 325.549 27.9011 326.712 28.3373 327.536L24.048 338.586ZM72.9896 351.163C70.6632 351.163 68.1672 350.921 65.5015 350.436C62.8359 350 60.1945 349.006 57.5773 347.456C55.0085 345.905 52.6095 343.506 50.38 340.258L53.9423 337.205C55.9779 340.016 58.4012 342.076 61.2122 343.384C64.0718 344.644 67.1009 345.275 70.2997 345.275C72.2384 345.275 74.0801 344.935 75.8249 344.257C77.6181 343.578 79.0721 342.512 80.1868 341.058C81.3016 339.604 81.8589 337.714 81.8589 335.387C81.8589 333.4 81.447 331.704 80.623 330.298C79.8476 328.893 78.8298 327.827 77.5697 327.1C76.3095 326.373 74.9767 326.009 73.5712 326.009H64.3383V320.847H70.8813C72.8684 320.847 74.4678 320.46 75.6795 319.684C76.9396 318.909 77.8605 317.867 78.4421 316.558C79.0237 315.201 79.3145 313.699 79.3145 312.051C79.3145 309.046 78.6359 306.816 77.2789 305.362C75.9218 303.908 73.9104 303.181 71.2448 303.181C68.046 303.181 65.5015 304.223 63.6113 306.308C61.7696 308.343 60.3156 311.372 59.2494 315.395H54.5239V298.456H60.1218L59.831 301.727C61.7211 300.758 63.369 300.007 64.7745 299.474C66.1801 298.892 67.5371 298.504 68.8457 298.311C70.2028 298.068 71.7295 297.947 73.4258 297.947C76.9154 297.85 79.896 298.359 82.3678 299.474C84.8881 300.54 86.8025 302.042 88.1111 303.981C89.4197 305.92 90.074 308.101 90.074 310.524C90.074 313.335 89.1531 315.783 87.3114 317.867C85.4697 319.902 82.901 321.429 79.6052 322.447V322.665C84.0642 323.343 87.4568 324.797 89.7832 327.027C92.1581 329.208 93.3455 332.019 93.3455 335.46C93.3455 337.883 92.7396 340.089 91.528 342.076C90.3648 344.014 88.7896 345.686 86.8025 347.092C84.8639 348.449 82.6829 349.467 80.2595 350.145C77.8847 350.872 75.4614 351.212 72.9896 351.163ZM136.632 315.54C136.632 312.923 136.268 310.766 135.541 309.07C134.814 307.325 133.772 306.041 132.415 305.217C131.107 304.345 129.532 303.933 127.69 303.981H124.2V338.077C124.2 339.386 124.176 340.646 124.128 341.858C124.079 343.069 124.006 343.99 123.909 344.62C124.733 344.523 125.775 344.475 127.035 344.475C128.344 344.426 129.241 344.402 129.725 344.402V350H108.497V345.202C109.612 345.153 110.533 345.008 111.26 344.766C112.035 344.523 112.617 343.966 113.004 343.094C113.441 342.221 113.659 340.816 113.659 338.877V304.054H110.315C107.552 304.102 105.371 305.047 103.772 306.889C102.172 308.731 101.373 311.615 101.373 315.54H96.5744L96.9379 299.11H140.994L141.43 315.54H136.632ZM171.047 332.479C171.047 330.444 170.732 328.99 170.102 328.117C169.472 327.197 168.6 326.615 167.485 326.373C166.419 326.13 165.231 326.033 163.923 326.082L162.032 326.155V338.077C162.032 339.386 162.008 340.622 161.96 341.785C161.911 342.948 161.839 343.845 161.742 344.475H171.483C172.937 344.475 174.343 344.16 175.7 343.53C177.057 342.851 178.172 341.761 179.044 340.258C179.917 338.707 180.353 336.623 180.353 334.006H185.078L184.715 350H146.329V345.202C147.444 345.153 148.365 345.008 149.092 344.766C149.867 344.523 150.449 343.966 150.837 343.094C151.273 342.221 151.491 340.816 151.491 338.877V311.033C151.491 309.724 151.515 308.464 151.564 307.253C151.661 306.041 151.733 305.12 151.782 304.49C151.006 304.539 150.037 304.587 148.874 304.635C147.711 304.635 146.862 304.66 146.329 304.708V299.11H182.679L183.115 313.214H178.317C178.317 310.548 177.857 308.537 176.936 307.18C176.015 305.823 174.876 304.926 173.519 304.49C172.162 304.005 170.829 303.787 169.52 303.836L166.903 303.908C165.885 303.908 165.013 304.054 164.286 304.345C163.559 304.587 163.002 305.169 162.614 306.089C162.226 306.962 162.032 308.343 162.032 310.233V321.138H170.538L170.247 314.813H175.845V332.479H171.047ZM191.696 350V345.202C192.81 345.153 193.731 345.008 194.458 344.766C195.234 344.523 195.815 343.966 196.203 343.094C196.639 342.221 196.857 340.816 196.857 338.877V311.033C196.857 309.724 196.881 308.464 196.93 307.253C197.027 306.041 197.1 305.12 197.148 304.49C196.373 304.539 195.403 304.587 194.24 304.635C193.077 304.635 192.229 304.66 191.696 304.708V299.11H212.56V303.908C211.494 303.957 210.573 304.102 209.798 304.345C209.022 304.587 208.416 305.144 207.98 306.017C207.593 306.841 207.399 308.246 207.399 310.233V321.284H212.633L218.231 311.76C219.055 310.306 219.927 308.852 220.848 307.398C221.769 305.944 222.544 304.95 223.174 304.417C222.399 304.466 221.575 304.514 220.703 304.563C219.83 304.611 219.128 304.66 218.594 304.708V299.11H236.406V303.908C235.34 303.957 234.176 304.151 232.916 304.49C231.705 304.829 230.444 305.508 229.136 306.526C227.827 307.543 226.494 309.143 225.137 311.324L218.158 322.52C219.128 323.15 219.976 323.828 220.703 324.555C221.478 325.234 222.157 325.985 222.738 326.809L230.226 337.35C231.196 338.707 232.189 339.992 233.207 341.203C234.273 342.367 235.364 343.312 236.479 344.039C237.593 344.766 238.684 345.153 239.75 345.202V350H228.554C228.167 349.952 227.536 349.515 226.664 348.691C225.792 347.867 224.871 346.874 223.901 345.711C222.932 344.548 222.108 343.506 221.43 342.585L214.232 332.116C213.602 331.195 212.9 330.25 212.124 329.281C211.397 328.311 210.694 327.584 210.016 327.1H207.399V338.077C207.399 339.386 207.374 340.646 207.326 341.858C207.278 343.069 207.205 343.99 207.108 344.62C207.883 344.523 208.853 344.475 210.016 344.475C211.228 344.426 212.076 344.402 212.56 344.402V350H191.696ZM277.983 315.395C277.353 311.372 275.996 308.343 273.911 306.308C271.876 304.272 269.162 303.23 265.769 303.181C263.249 303.181 261.044 303.763 259.153 304.926C257.263 306.089 255.688 307.64 254.428 309.579C253.216 311.518 252.295 313.723 251.665 316.195C251.084 318.666 250.793 321.211 250.793 323.828C250.793 327.996 251.375 331.704 252.538 334.951C253.749 338.15 255.494 340.67 257.772 342.512C260.05 344.354 262.813 345.275 266.06 345.275C269.113 345.275 272.142 344.499 275.147 342.948C278.152 341.349 280.673 339.144 282.708 336.332L286.198 339.531C283.823 342.779 281.327 345.25 278.71 346.947C276.092 348.594 273.524 349.709 271.003 350.291C268.532 350.872 266.302 351.163 264.315 351.163C260.583 351.163 257.191 350.509 254.137 349.2C251.084 347.843 248.442 346.002 246.213 343.675C244.032 341.3 242.336 338.562 241.124 335.46C239.961 332.31 239.379 328.917 239.379 325.282C239.379 321.986 239.912 318.715 240.979 315.468C242.045 312.22 243.62 309.288 245.704 306.671C247.837 304.005 250.502 301.897 253.701 300.346C256.9 298.747 260.607 297.947 264.824 297.947C266.714 297.947 268.774 298.262 271.003 298.892C273.281 299.474 275.414 300.346 277.401 301.509L277.11 298.456H282.708V315.395H277.983ZM328.107 315.54C328.107 312.923 327.744 310.766 327.017 309.07C326.29 307.325 325.248 306.041 323.891 305.217C322.582 304.345 321.007 303.933 319.165 303.981H315.676V338.077C315.676 339.386 315.651 340.646 315.603 341.858C315.555 343.069 315.482 343.99 315.385 344.62C316.209 344.523 317.251 344.475 318.511 344.475C319.82 344.426 320.716 344.402 321.201 344.402V350H299.973V345.202C301.087 345.153 302.008 345.008 302.735 344.766C303.511 344.523 304.092 343.966 304.48 343.094C304.916 342.221 305.134 340.816 305.134 338.877V304.054H301.79C299.027 304.102 296.846 305.047 295.247 306.889C293.648 308.731 292.848 311.615 292.848 315.54H288.05L288.413 299.11H332.469L332.905 315.54H328.107ZM358.67 303.908C357.603 303.957 356.682 304.102 355.907 304.345C355.131 304.587 354.526 305.144 354.089 306.017C353.702 306.841 353.508 308.246 353.508 310.233V338.077C353.508 339.386 353.484 340.646 353.435 341.858C353.387 343.069 353.314 343.99 353.217 344.62C353.993 344.523 354.962 344.475 356.125 344.475C357.337 344.426 358.185 344.402 358.67 344.402V350H337.805V345.202C338.919 345.153 339.84 345.008 340.567 344.766C341.343 344.523 341.924 343.966 342.312 343.094C342.748 342.221 342.966 340.816 342.966 338.877V311.033C342.966 309.724 342.991 308.464 343.039 307.253C343.136 306.041 343.209 305.12 343.257 304.49C342.482 304.539 341.512 304.587 340.349 304.635C339.186 304.635 338.338 304.66 337.805 304.708V299.11H358.67V303.908ZM390.076 303.908C389.01 303.957 388.089 304.102 387.313 304.345C386.538 304.587 385.932 305.144 385.496 306.017C385.108 306.841 384.914 308.246 384.914 310.233V338.077C384.914 339.386 384.89 340.646 384.841 341.858C384.793 343.069 384.72 343.99 384.623 344.62C385.399 344.523 386.368 344.475 387.531 344.475C388.743 344.426 389.591 344.402 390.076 344.402V350H369.211V345.202C370.326 345.153 371.247 345.008 371.974 344.766C372.749 344.523 373.331 343.966 373.718 343.094C374.155 342.221 374.373 340.816 374.373 338.877V311.033C374.373 309.724 374.397 308.464 374.445 307.253C374.542 306.041 374.615 305.12 374.663 304.49C373.888 304.539 372.919 304.587 371.755 304.635C370.592 304.635 369.744 304.66 369.211 304.708V299.11H390.076V303.908ZM379.971 301.291L383.46 304.781L347.183 347.892L343.475 344.184L379.971 301.291ZM403.913 351.163C401.296 351.163 399.188 350.606 397.588 349.491C396.037 348.376 395.262 346.777 395.262 344.693C395.262 342.997 395.722 341.518 396.643 340.258C397.612 338.95 399.139 338.295 401.223 338.295C402.92 338.295 404.155 338.756 404.931 339.677C405.706 340.598 406.094 341.712 406.094 343.021C406.094 343.845 405.9 344.523 405.513 345.056C405.755 345.202 406.118 345.275 406.603 345.275C407.282 345.275 408.081 344.669 409.002 343.457C409.923 342.245 410.82 340.355 411.692 337.786C412.613 335.169 413.413 331.825 414.091 327.754C414.77 323.634 415.182 318.691 415.327 312.923L415.545 304.49L413.728 304.563L407.185 304.708V299.11H447.315V303.908C446.249 303.957 445.328 304.102 444.552 304.345C443.777 304.587 443.171 305.144 442.735 306.017C442.347 306.841 442.153 308.246 442.153 310.233V338.077C442.153 339.386 442.129 340.646 442.08 341.858C442.032 343.069 441.959 343.99 441.862 344.62C442.686 344.523 443.68 344.475 444.843 344.475C446.006 344.426 446.83 344.402 447.315 344.402V350H426.45V345.202C427.565 345.153 428.486 345.008 429.213 344.766C429.988 344.523 430.57 343.966 430.957 343.094C431.394 342.221 431.612 340.816 431.612 338.877V304.563L425.796 304.781C424.148 304.829 422.936 305.169 422.161 305.799C421.385 306.38 420.973 307.471 420.925 309.07C420.779 315.322 420.367 320.799 419.689 325.5C419.059 330.201 418.211 334.2 417.144 337.496C416.078 340.743 414.842 343.384 413.437 345.42C412.031 347.407 410.505 348.861 408.857 349.782C407.257 350.703 405.609 351.163 403.913 351.163ZM475.458 303.908C474.391 303.957 473.47 304.102 472.695 304.345C471.919 304.587 471.314 305.144 470.877 306.017C470.49 306.841 470.296 308.246 470.296 310.233V320.411L474.294 320.266C478.656 320.12 482.194 320.46 484.908 321.284C487.671 322.108 489.779 323.271 491.233 324.773C492.736 326.276 493.778 327.972 494.359 329.862C494.941 331.704 495.232 333.594 495.232 335.533C495.232 338.683 494.456 341.349 492.905 343.53C491.403 345.662 489.319 347.286 486.653 348.401C483.988 349.467 480.958 350 477.566 350H454.593V345.202C455.707 345.153 456.628 345.008 457.355 344.766C458.131 344.523 458.712 343.966 459.1 343.094C459.536 342.221 459.754 340.816 459.754 338.877V311.033C459.754 309.724 459.779 308.464 459.827 307.253C459.924 306.041 459.997 305.12 460.045 304.49C459.27 304.539 458.3 304.587 457.137 304.635C455.974 304.635 455.126 304.66 454.593 304.708V299.11H475.458V303.908ZM470.296 338.441C470.296 339.749 470.272 340.985 470.223 342.148C470.175 343.312 470.102 344.208 470.005 344.838C470.587 344.838 471.168 344.838 471.75 344.838C472.38 344.838 472.986 344.838 473.567 344.838C474.149 344.79 474.731 344.766 475.312 344.766C478.269 344.62 480.401 343.675 481.71 341.93C483.067 340.137 483.745 337.811 483.745 334.951C483.745 332.528 483.333 330.638 482.509 329.281C481.734 327.924 480.643 326.954 479.238 326.373C477.832 325.791 476.209 325.5 474.367 325.5C473.688 325.5 473.01 325.5 472.331 325.5C471.653 325.5 470.974 325.549 470.296 325.646V338.441ZM500.669 350V345.202C501.784 345.153 502.705 345.008 503.432 344.766C504.207 344.523 504.789 343.966 505.176 343.094C505.612 342.221 505.831 340.816 505.831 338.877V311.033C505.831 309.724 505.855 308.464 505.903 307.253C506 306.041 506.073 305.12 506.121 304.49C505.346 304.539 504.377 304.587 503.213 304.635C502.05 304.635 501.202 304.66 500.669 304.708V299.11H550.977V303.908C549.911 303.957 548.99 304.102 548.214 304.345C547.439 304.587 546.833 305.144 546.397 306.017C546.009 306.841 545.815 308.246 545.815 310.233V338.077C545.815 339.386 545.791 340.646 545.743 341.858C545.694 343.069 545.622 343.99 545.525 344.62C546.3 344.523 547.269 344.475 548.433 344.475C549.644 344.426 550.492 344.402 550.977 344.402V350H530.112V345.202C531.227 345.153 532.148 345.008 532.875 344.766C533.65 344.523 534.232 343.966 534.62 343.094C535.056 342.221 535.274 340.816 535.274 338.877V304.563L521.388 304.781C520.322 304.829 519.401 304.975 518.626 305.217C517.899 305.459 517.341 306.017 516.954 306.889C516.566 307.762 516.372 309.167 516.372 311.106V338.077C516.372 339.386 516.348 340.646 516.299 341.858C516.251 343.069 516.178 343.99 516.081 344.62C516.857 344.523 517.826 344.475 518.989 344.475C520.201 344.426 521.049 344.402 521.534 344.402V350H500.669ZM558.246 345.202C559.361 345.153 560.282 345.008 561.009 344.766C561.784 344.523 562.366 343.966 562.754 343.094C563.19 342.221 563.408 340.816 563.408 338.877V311.033C563.408 309.724 563.432 308.464 563.481 307.253C563.578 306.041 563.65 305.12 563.699 304.49C562.923 304.539 561.954 304.587 560.791 304.635C559.628 304.635 558.78 304.66 558.246 304.708V299.11C561.688 299.062 565.129 299.038 568.57 299.038C572.011 299.038 575.452 299.013 578.893 298.965C583.158 298.916 586.866 299.474 590.016 300.637C593.215 301.8 595.663 303.593 597.359 306.017C599.104 308.44 599.928 311.59 599.831 315.468C599.782 317.406 599.322 319.321 598.449 321.211C597.577 323.053 596.293 324.749 594.596 326.3C592.9 327.802 590.767 329.038 588.199 330.008C585.63 330.977 582.625 331.51 579.184 331.607C578.118 331.655 577.173 331.68 576.349 331.68C575.573 331.68 574.773 331.655 573.95 331.607V338.005C573.95 339.362 573.925 340.646 573.877 341.858C573.828 343.069 573.756 343.99 573.659 344.62C574.192 344.572 574.87 344.548 575.694 344.548C576.518 344.499 577.318 344.475 578.093 344.475C578.917 344.426 579.499 344.402 579.838 344.402V350H558.246V345.202ZM573.95 326.155C574.483 326.203 575.016 326.251 575.549 326.3C576.082 326.348 576.639 326.373 577.221 326.373C579.887 326.373 582.043 325.936 583.691 325.064C585.388 324.143 586.624 322.835 587.399 321.138C588.174 319.393 588.562 317.285 588.562 314.813C588.562 312.39 588.223 310.451 587.544 308.997C586.914 307.543 586.09 306.477 585.073 305.799C584.055 305.072 582.989 304.611 581.874 304.417C580.759 304.175 579.741 304.054 578.82 304.054C577.803 304.054 576.93 304.175 576.203 304.417C575.476 304.66 574.919 305.193 574.531 306.017C574.143 306.841 573.95 308.101 573.95 309.797V326.155ZM628.887 351.163C624.282 351.163 620.357 350.388 617.109 348.837C613.91 347.286 611.318 345.226 609.33 342.657C607.343 340.04 605.889 337.156 604.968 334.006C604.048 330.856 603.587 327.705 603.587 324.555C603.587 321.502 604.096 318.424 605.114 315.322C606.18 312.172 607.755 309.288 609.839 306.671C611.972 304.054 614.637 301.946 617.836 300.346C621.035 298.747 624.791 297.947 629.105 297.947C633.515 297.947 637.32 298.747 640.519 300.346C643.717 301.946 646.335 304.078 648.37 306.744C650.406 309.361 651.908 312.22 652.877 315.322C653.895 318.424 654.404 321.502 654.404 324.555C654.404 327.56 653.871 330.613 652.805 333.715C651.787 336.817 650.212 339.701 648.079 342.367C645.995 344.984 643.354 347.116 640.155 348.764C636.956 350.363 633.2 351.163 628.887 351.163ZM629.686 345.856C632.207 345.856 634.315 345.25 636.011 344.039C637.708 342.779 639.065 341.155 640.082 339.168C641.1 337.181 641.827 335.024 642.263 332.697C642.7 330.323 642.918 328.02 642.918 325.791C642.918 322.447 642.627 319.393 642.045 316.631C641.464 313.868 640.567 311.493 639.355 309.506C638.144 307.471 636.593 305.92 634.703 304.854C632.861 303.739 630.68 303.206 628.16 303.254C625.688 303.303 623.604 303.981 621.907 305.29C620.211 306.55 618.854 308.198 617.836 310.233C616.818 312.22 616.091 314.401 615.655 316.776C615.219 319.151 615.001 321.453 615.001 323.683C615.001 325.961 615.243 328.384 615.728 330.953C616.261 333.521 617.085 335.945 618.2 338.223C619.315 340.501 620.817 342.342 622.707 343.748C624.597 345.153 626.924 345.856 629.686 345.856ZM686.578 350.727C684.93 346.704 683.282 342.706 681.634 338.732C680.035 334.757 678.411 330.783 676.763 326.809C676.376 325.888 675.867 324.604 675.237 322.956C674.655 321.259 674.025 319.321 673.346 317.14C672.716 314.959 672.135 312.705 671.602 310.379C671.699 313.093 671.771 315.662 671.82 318.085C671.868 320.46 671.868 322.738 671.82 324.919C671.82 325.985 671.82 327.075 671.82 328.19C671.82 329.305 671.796 330.42 671.747 331.534C671.747 332.601 671.747 333.691 671.747 334.806C671.747 335.872 671.747 336.963 671.747 338.077C671.747 339.386 671.699 340.646 671.602 341.858C671.553 343.069 671.48 343.99 671.384 344.62C672.207 344.523 673.201 344.475 674.364 344.475C675.576 344.426 676.424 344.402 676.909 344.402V350H660.333V345.202C661.448 345.153 662.369 345.008 663.096 344.766C663.871 344.523 664.453 343.966 664.841 343.094C665.277 342.221 665.495 340.816 665.495 338.877L665.931 311.033C665.98 309.724 666.028 308.464 666.076 307.253C666.125 306.041 666.173 305.12 666.222 304.49C665.446 304.539 664.477 304.587 663.314 304.635C662.151 304.635 661.303 304.66 660.769 304.708V299.11H676.836L687.814 327.245C688.25 328.36 688.735 329.668 689.268 331.171C689.801 332.625 690.31 334.055 690.794 335.46C691.279 336.817 691.643 337.908 691.885 338.732H691.958C692.588 337.035 693.169 335.387 693.702 333.788C694.235 332.189 694.793 330.638 695.374 329.135C697.265 324.095 699.131 319.078 700.972 314.086C702.862 309.094 704.753 304.102 706.643 299.11H723.436V303.908C722.37 303.957 721.425 304.102 720.601 304.345C719.777 304.587 719.147 305.144 718.711 306.017C718.323 306.841 718.154 308.246 718.202 310.233L719.293 338.077C719.39 339.386 719.39 340.646 719.293 341.858C719.196 343.069 719.099 343.99 719.002 344.62C719.826 344.523 720.819 344.475 721.982 344.475C723.194 344.426 724.042 344.402 724.527 344.402V350H704.316V345.202C705.431 345.153 706.376 345.008 707.152 344.766C707.976 344.523 708.582 343.966 708.969 343.094C709.405 342.221 709.575 340.816 709.478 338.877L708.897 323.465C708.897 322.883 708.848 321.889 708.751 320.484C708.654 319.03 708.557 317.455 708.46 315.758C708.412 314.014 708.363 312.39 708.315 310.888C708.17 311.227 708.024 311.566 707.879 311.905C707.733 312.196 707.612 312.511 707.515 312.85L693.339 350.727H686.578Z" fill="#128CDB"/>
</svg>
